# xmcd CD database file
#
# Track frame offsets:
#	150
#	19830
#	42153
#	55715
#	80475
#	134413
#	155499
#	158149
#	177419
#	197556
#	224391
#	226551
#
# Disc length: 3215 seconds
#
# Revision: 1
# Processed by: cddbd v1.5.2PL0 Copyright (c) Steve Scherf et al.
# Submitted via: CDex 1.51
#
DISCID=960c8d0c
DTITLE=Magna carta - Time for the leaving CD1
DYEAR=2002
DGENRE=Pop-Folk
TTITLE0=BLUES FOR A LONG ROAD HOME
TTITLE1=BANJO MAN
TTITLE2=TERMINAL CASE OF YOU
TTITLE3=SEASONS IN THE TIDE
TTITLE4=MAGNOLIA
TTITLE5=SEA AND SAND
TTITLE6=SPRING POEM
TTITLE7=AIRPORT SONG
TTITLE8=TIME FOR THE LEAVING
TTITLE9=SUN AIN'T GONNA RISE
TTITLE10=SOLILOQUY #1
TTITLE11=PUTTING IT BACK TOGETHER
EXTD=YEAR: 2002
EXTT0=
EXTT1=
EXTT2=
EXTT3=
EXTT4=
EXTT5=
EXTT6=
EXTT7=
EXTT8=
EXTT9=
EXTT10=
EXTT11=
PLAYORDER=
